<svg width="420" height="378" viewBox="0 0 420 378" fill="none" xmlns="http://www.w3.org/2000/svg">
<path fill-rule="evenodd" clip-rule="evenodd" d="M239.282 20.3825C292.174 12.3293 355.549 -15.8122 396.528 12.0112C438.283 40.3609 410.927 95.5017 414.169 139.124C416.454 169.867 419.349 198.912 412.674 229.248C404.838 264.867 403.08 303.556 372.164 330.04C338.247 359.094 288.985 380.403 239.282 377.782C190.522 375.211 158.669 338.945 118.598 316.669C77.479 293.81 14.0848 284.547 1.88851 245.809C-10.3778 206.849 40.2775 174.683 62.5486 138.646C80.7977 109.116 88.7514 75.227 120.391 54.0547C153.403 31.965 196.932 26.8305 239.282 20.3825Z" fill="#0D698B"/></svg>
