<svg id="visual" viewBox="0 0 960 100" width="960" height="100" xmlns="http://www.w3.org/2000/svg" xmlns:xlink="http://www.w3.org/1999/xlink" version="1.1"><rect x="0" y="0" width="960" height="100" fill="#F2F1E8"></rect><path d="M0 45L11.5 41C23 37 46 29 68.8 29.7C91.7 30.3 114.3 39.7 137.2 41.8C160 44 183 39 205.8 41.2C228.7 43.3 251.3 52.7 274.2 57.3C297 62 320 62 342.8 55.7C365.7 49.3 388.3 36.7 411.2 34.8C434 33 457 42 480 43.7C503 45.3 526 39.7 548.8 40.8C571.7 42 594.3 50 617.2 50.5C640 51 663 44 685.8 44.2C708.7 44.3 731.3 51.7 754.2 46.5C777 41.3 800 23.7 822.8 20.5C845.7 17.3 868.3 28.7 891.2 30.2C914 31.7 937 23.3 948.5 19.2L960 15L960 101L948.5 101C937 101 914 101 891.2 101C868.3 101 845.7 101 822.8 101C800 101 777 101 754.2 101C731.3 101 708.7 101 685.8 101C663 101 640 101 617.2 101C594.3 101 571.7 101 548.8 101C526 101 503 101 480 101C457 101 434 101 411.2 101C388.3 101 365.7 101 342.8 101C320 101 297 101 274.2 101C251.3 101 228.7 101 205.8 101C183 101 160 101 137.2 101C114.3 101 91.7 101 68.8 101C46 101 23 101 11.5 101L0 101Z" fill="#f68073"></path><path d="M0 64L11.5 58.5C23 53 46 42 68.8 40.5C91.7 39 114.3 47 137.2 53.8C160 60.7 183 66.3 205.8 62.7C228.7 59 251.3 46 274.2 40.7C297 35.3 320 37.7 342.8 45C365.7 52.3 388.3 64.7 411.2 68C434 71.3 457 65.7 480 65.5C503 65.3 526 70.7 548.8 73.5C571.7 76.3 594.3 76.7 617.2 69.3C640 62 663 47 685.8 43.2C708.7 39.3 731.3 46.7 754.2 52.3C777 58 800 62 822.8 61.3C845.7 60.7 868.3 55.3 891.2 57.2C914 59 937 68 948.5 72.5L960 77L960 101L948.5 101C937 101 914 101 891.2 101C868.3 101 845.7 101 822.8 101C800 101 777 101 754.2 101C731.3 101 708.7 101 685.8 101C663 101 640 101 617.2 101C594.3 101 571.7 101 548.8 101C526 101 503 101 480 101C457 101 434 101 411.2 101C388.3 101 365.7 101 342.8 101C320 101 297 101 274.2 101C251.3 101 228.7 101 205.8 101C183 101 160 101 137.2 101C114.3 101 91.7 101 68.8 101C46 101 23 101 11.5 101L0 101Z" fill="#e34234"></path><path d="M0 94L11.5 93.7C23 93.3 46 92.7 68.8 88.8C91.7 85 114.3 78 137.2 73.5C160 69 183 67 205.8 66.5C228.7 66 251.3 67 274.2 65.3C297 63.7 320 59.3 342.8 60C365.7 60.7 388.3 66.3 411.2 70.8C434 75.3 457 78.7 480 80.3C503 82 526 82 548.8 82C571.7 82 594.3 82 617.2 83.3C640 84.7 663 87.3 685.8 87.5C708.7 87.7 731.3 85.3 754.2 82C777 78.7 800 74.3 822.8 74.7C845.7 75 868.3 80 891.2 81.8C914 83.7 937 82.3 948.5 81.7L960 81L960 101L948.5 101C937 101 914 101 891.2 101C868.3 101 845.7 101 822.8 101C800 101 777 101 754.2 101C731.3 101 708.7 101 685.8 101C663 101 640 101 617.2 101C594.3 101 571.7 101 548.8 101C526 101 503 101 480 101C457 101 434 101 411.2 101C388.3 101 365.7 101 342.8 101C320 101 297 101 274.2 101C251.3 101 228.7 101 205.8 101C183 101 160 101 137.2 101C114.3 101 91.7 101 68.8 101C46 101 23 101 11.5 101L0 101Z" fill="#a82e27"></path></svg>