<svg id="visual" viewBox="0 0 960 300" width="960" height="300" xmlns="http://www.w3.org/2000/svg" xmlns:xlink="http://www.w3.org/1999/xlink" version="1.1"><rect x="0" y="0" width="960" height="300" fill="#F2F1E8"></rect><path d="M0 53L22.8 52.7C45.7 52.3 91.3 51.7 137 58.5C182.7 65.3 228.3 79.7 274 90C319.7 100.3 365.3 106.7 411.2 102.2C457 97.7 503 82.3 548.8 73.5C594.7 64.7 640.3 62.3 686 74.3C731.7 86.3 777.3 112.7 823 122C868.7 131.3 914.3 123.7 937.2 119.8L960 116L960 301L937.2 301C914.3 301 868.7 301 823 301C777.3 301 731.7 301 686 301C640.3 301 594.7 301 548.8 301C503 301 457 301 411.2 301C365.3 301 319.7 301 274 301C228.3 301 182.7 301 137 301C91.3 301 45.7 301 22.8 301L0 301Z" fill="#e34234"></path><path d="M0 103L22.8 108.3C45.7 113.7 91.3 124.3 137 125.7C182.7 127 228.3 119 274 122.5C319.7 126 365.3 141 411.2 139.8C457 138.7 503 121.3 548.8 120.7C594.7 120 640.3 136 686 140.7C731.7 145.3 777.3 138.7 823 137.5C868.7 136.3 914.3 140.7 937.2 142.8L960 145L960 301L937.2 301C914.3 301 868.7 301 823 301C777.3 301 731.7 301 686 301C640.3 301 594.7 301 548.8 301C503 301 457 301 411.2 301C365.3 301 319.7 301 274 301C228.3 301 182.7 301 137 301C91.3 301 45.7 301 22.8 301L0 301Z" fill="#a70852"></path><path d="M0 168L22.8 173.7C45.7 179.3 91.3 190.7 137 197.8C182.7 205 228.3 208 274 204C319.7 200 365.3 189 411.2 183C457 177 503 176 548.8 183.5C594.7 191 640.3 207 686 209.5C731.7 212 777.3 201 823 193.3C868.7 185.7 914.3 181.3 937.2 179.2L960 177L960 301L937.2 301C914.3 301 868.7 301 823 301C777.3 301 731.7 301 686 301C640.3 301 594.7 301 548.8 301C503 301 457 301 411.2 301C365.3 301 319.7 301 274 301C228.3 301 182.7 301 137 301C91.3 301 45.7 301 22.8 301L0 301Z" fill="#560e52"></path><path d="M0 232L22.8 228.7C45.7 225.3 91.3 218.7 137 217.7C182.7 216.7 228.3 221.3 274 225C319.7 228.7 365.3 231.3 411.2 236.8C457 242.3 503 250.7 548.8 246.8C594.7 243 640.3 227 686 223.2C731.7 219.3 777.3 227.7 823 228.7C868.7 229.7 914.3 223.3 937.2 220.2L960 217L960 301L937.2 301C914.3 301 868.7 301 823 301C777.3 301 731.7 301 686 301C640.3 301 594.7 301 548.8 301C503 301 457 301 411.2 301C365.3 301 319.7 301 274 301C228.3 301 182.7 301 137 301C91.3 301 45.7 301 22.8 301L0 301Z" fill="#050533"></path></svg>