<svg width="405" height="290" viewBox="0 0 405 290" fill="none" xmlns="http://www.w3.org/2000/svg">
<path fill-rule="evenodd" clip-rule="evenodd" d="M208.208 0.12097C245.354 -2.16562 269.726 28.5108 299.237 45.8243C327.675 62.5082 360.503 75.2006 377.327 99.3379C396.323 126.59 415.367 160.135 398.457 188.171C381.616 216.09 329.431 215.822 296.406 233.497C264.184 250.741 247.592 290.734 208.208 289.99C168.653 289.242 155.272 247.785 123.137 230.222C90.7147 212.502 41.4181 213.452 20.6835 187.497C-1.39196 159.865 -8.83456 120.518 13.5281 93.0195C35.7339 65.7135 91.533 73.4707 127.288 56.4091C159.026 41.2638 170.865 2.41974 208.208 0.12097Z" fill="#050533"/>
</svg>
