<svg id="visual" viewBox="0 0 900 600" width="900" height="600" xmlns="http://www.w3.org/2000/svg" xmlns:xlink="http://www.w3.org/1999/xlink" version="1.1"><rect x="0" y="0" width="900" height="600" fill="#F2F1E8"></rect><path d="M0 337L18.8 320.8C37.7 304.7 75.3 272.3 112.8 243.7C150.3 215 187.7 190 225.2 199.8C262.7 209.7 300.3 254.3 337.8 273.3C375.3 292.3 412.7 285.7 450.2 292.7C487.7 299.7 525.3 320.3 562.8 313.8C600.3 307.3 637.7 273.7 675.2 267.3C712.7 261 750.3 282 787.8 275.8C825.3 269.7 862.7 236.3 881.3 219.7L900 203L900 601L881.3 601C862.7 601 825.3 601 787.8 601C750.3 601 712.7 601 675.2 601C637.7 601 600.3 601 562.8 601C525.3 601 487.7 601 450.2 601C412.7 601 375.3 601 337.8 601C300.3 601 262.7 601 225.2 601C187.7 601 150.3 601 112.8 601C75.3 601 37.7 601 18.8 601L0 601Z" fill="#f68073"></path><path d="M0 235L18.8 234.7C37.7 234.3 75.3 233.7 112.8 258C150.3 282.3 187.7 331.7 225.2 344.3C262.7 357 300.3 333 337.8 328.7C375.3 324.3 412.7 339.7 450.2 342.3C487.7 345 525.3 335 562.8 316.7C600.3 298.3 637.7 271.7 675.2 263.8C712.7 256 750.3 267 787.8 286C825.3 305 862.7 332 881.3 345.5L900 359L900 601L881.3 601C862.7 601 825.3 601 787.8 601C750.3 601 712.7 601 675.2 601C637.7 601 600.3 601 562.8 601C525.3 601 487.7 601 450.2 601C412.7 601 375.3 601 337.8 601C300.3 601 262.7 601 225.2 601C187.7 601 150.3 601 112.8 601C75.3 601 37.7 601 18.8 601L0 601Z" fill="#f0695a"></path><path d="M0 322L18.8 322.2C37.7 322.3 75.3 322.7 112.8 328.2C150.3 333.7 187.7 344.3 225.2 349.3C262.7 354.3 300.3 353.7 337.8 349.8C375.3 346 412.7 339 450.2 345.2C487.7 351.3 525.3 370.7 562.8 371.8C600.3 373 637.7 356 675.2 364.2C712.7 372.3 750.3 405.7 787.8 418.2C825.3 430.7 862.7 422.3 881.3 418.2L900 414L900 601L881.3 601C862.7 601 825.3 601 787.8 601C750.3 601 712.7 601 675.2 601C637.7 601 600.3 601 562.8 601C525.3 601 487.7 601 450.2 601C412.7 601 375.3 601 337.8 601C300.3 601 262.7 601 225.2 601C187.7 601 150.3 601 112.8 601C75.3 601 37.7 601 18.8 601L0 601Z" fill="#e85041"></path><path d="M0 384L18.8 399.3C37.7 414.7 75.3 445.3 112.8 450.7C150.3 456 187.7 436 225.2 428C262.7 420 300.3 424 337.8 435.2C375.3 446.3 412.7 464.7 450.2 458.8C487.7 453 525.3 423 562.8 416.5C600.3 410 637.7 427 675.2 422C712.7 417 750.3 390 787.8 380.5C825.3 371 862.7 379 881.3 383L900 387L900 601L881.3 601C862.7 601 825.3 601 787.8 601C750.3 601 712.7 601 675.2 601C637.7 601 600.3 601 562.8 601C525.3 601 487.7 601 450.2 601C412.7 601 375.3 601 337.8 601C300.3 601 262.7 601 225.2 601C187.7 601 150.3 601 112.8 601C75.3 601 37.7 601 18.8 601L0 601Z" fill="#d73e31"></path><path d="M0 437L18.8 434C37.7 431 75.3 425 112.8 435.8C150.3 446.7 187.7 474.3 225.2 484.5C262.7 494.7 300.3 487.3 337.8 492.5C375.3 497.7 412.7 515.3 450.2 506.5C487.7 497.7 525.3 462.3 562.8 449.8C600.3 437.3 637.7 447.7 675.2 446.8C712.7 446 750.3 434 787.8 429.7C825.3 425.3 862.7 428.7 881.3 430.3L900 432L900 601L881.3 601C862.7 601 825.3 601 787.8 601C750.3 601 712.7 601 675.2 601C637.7 601 600.3 601 562.8 601C525.3 601 487.7 601 450.2 601C412.7 601 375.3 601 337.8 601C300.3 601 262.7 601 225.2 601C187.7 601 150.3 601 112.8 601C75.3 601 37.7 601 18.8 601L0 601Z" fill="#bf362c"></path><path d="M0 561L18.8 549.8C37.7 538.7 75.3 516.3 112.8 513C150.3 509.7 187.7 525.3 225.2 533.5C262.7 541.7 300.3 542.3 337.8 540.3C375.3 538.3 412.7 533.7 450.2 527.8C487.7 522 525.3 515 562.8 509.3C600.3 503.7 637.7 499.3 675.2 501C712.7 502.7 750.3 510.3 787.8 509.8C825.3 509.3 862.7 500.7 881.3 496.3L900 492L900 601L881.3 601C862.7 601 825.3 601 787.8 601C750.3 601 712.7 601 675.2 601C637.7 601 600.3 601 562.8 601C525.3 601 487.7 601 450.2 601C412.7 601 375.3 601 337.8 601C300.3 601 262.7 601 225.2 601C187.7 601 150.3 601 112.8 601C75.3 601 37.7 601 18.8 601L0 601Z" fill="#a82e27"></path></svg>