<svg id="visual" viewBox="0 0 960 600" width="960" height="600" xmlns="http://www.w3.org/2000/svg" xmlns:xlink="http://www.w3.org/1999/xlink" version="1.1">
  <rect x="0" y="0" width="960" height="600" fill="#F2F1E8"></rect>
  <path d="M0 307L22.8 295.3C45.7 283.7 91.3 260.3 137 246.5C182.7 232.7 228.3 228.3 274 237.3C319.7 246.3 365.3 268.7 411.2 273.5C457 278.3 503 265.7 548.8 257C594.7 248.3 640.3 243.7 686 233.5C731.7 223.3 777.3 207.7 823 203.2C868.7 198.7 914.3 205.3 937.2 208.7L960 212L960 601L937.2 601C914.3 601 868.7 601 823 601C777.3 601 731.7 601 686 601C640.3 601 594.7 601 548.8 601C503 601 457 601 411.2 601C365.3 601 319.7 601 274 601C228.3 601 182.7 601 137 601C91.3 601 45.7 601 22.8 601L0 601Z" fill="#e34234"></path>
  <path d="M0 383L22.8 371.8C45.7 360.7 91.3 338.3 137 326C182.7 313.7 228.3 311.3 274 318C319.7 324.7 365.3 340.3 411.2 333.8C457 327.3 503 298.7 548.8 282.5C594.7 266.3 640.3 262.7 686 257.2C731.7 251.7 777.3 244.3 823 251.5C868.7 258.7 914.3 280.3 937.2 291.2L960 302L960 601L937.2 601C914.3 601 868.7 601 823 601C777.3 601 731.7 601 686 601C640.3 601 594.7 601 548.8 601C503 601 457 601 411.2 601C365.3 601 319.7 601 274 601C228.3 601 182.7 601 137 601C91.3 601 45.7 601 22.8 601L0 601Z" fill="#c31b49"></path>
  <path d="M0 308L22.8 318.7C45.7 329.3 91.3 350.7 137 361.2C182.7 371.7 228.3 371.3 274 380.5C319.7 389.7 365.3 408.3 411.2 418.2C457 428 503 429 548.8 418.3C594.7 407.7 640.3 385.3 686 379.2C731.7 373 777.3 383 823 383.5C868.7 384 914.3 375 937.2 370.5L960 366L960 601L937.2 601C914.3 601 868.7 601 823 601C777.3 601 731.7 601 686 601C640.3 601 594.7 601 548.8 601C503 601 457 601 411.2 601C365.3 601 319.7 601 274 601C228.3 601 182.7 601 137 601C91.3 601 45.7 601 22.8 601L0 601Z" fill="#980555"></path>
  <path d="M0 434L22.8 431.5C45.7 429 91.3 424 137 417.2C182.7 410.3 228.3 401.7 274 401.2C319.7 400.7 365.3 408.3 411.2 419.3C457 430.3 503 444.7 548.8 452.8C594.7 461 640.3 463 686 463.2C731.7 463.3 777.3 461.7 823 456.7C868.7 451.7 914.3 443.3 937.2 439.2L960 435L960 601L937.2 601C914.3 601 868.7 601 823 601C777.3 601 731.7 601 686 601C640.3 601 594.7 601 548.8 601C503 601 457 601 411.2 601C365.3 601 319.7 601 274 601C228.3 601 182.7 601 137 601C91.3 601 45.7 601 22.8 601L0 601Z" fill="#670c55"></path>
  <path d="M0 459L22.8 466.7C45.7 474.3 91.3 489.7 137 496.2C182.7 502.7 228.3 500.3 274 498.2C319.7 496 365.3 494 411.2 492.7C457 491.3 503 490.7 548.8 493C594.7 495.3 640.3 500.7 686 498.8C731.7 497 777.3 488 823 483.8C868.7 479.7 914.3 480.3 937.2 480.7L960 481L960 601L937.2 601C914.3 601 868.7 601 823 601C777.3 601 731.7 601 686 601C640.3 601 594.7 601 548.8 601C503 601 457 601 411.2 601C365.3 601 319.7 601 274 601C228.3 601 182.7 601 137 601C91.3 601 45.7 601 22.8 601L0 601Z" fill="#350f49"></path>
  <path d="M0 491L22.8 501.2C45.7 511.3 91.3 531.7 137 538.2C182.7 544.7 228.3 537.3 274 536.8C319.7 536.3 365.3 542.7 411.2 547.2C457 551.7 503 554.3 548.8 549.7C594.7 545 640.3 533 686 529.8C731.7 526.7 777.3 532.3 823 531C868.7 529.7 914.3 521.3 937.2 517.2L960 513L960 601L937.2 601C914.3 601 868.7 601 823 601C777.3 601 731.7 601 686 601C640.3 601 594.7 601 548.8 601C503 601 457 601 411.2 601C365.3 601 319.7 601 274 601C228.3 601 182.7 601 137 601C91.3 601 45.7 601 22.8 601L0 601Z" fill="#050533"></path>
</svg>