<svg id="visual" viewBox="0 0 960 100" width="960" height="100" xmlns="http://www.w3.org/2000/svg" xmlns:xlink="http://www.w3.org/1999/xlink" version="1.1"><rect x="0" y="0" width="960" height="100" fill="#F2F1E8"></rect><path d="M0 74L14.5 74.5C29 75 58 76 87.2 72.3C116.3 68.7 145.7 60.3 174.8 61.3C204 62.3 233 72.7 262 73.7C291 74.7 320 66.3 349 62.2C378 58 407 58 436.2 61.2C465.3 64.3 494.7 70.7 523.8 72.7C553 74.7 582 72.3 611 71C640 69.7 669 69.3 698 68.2C727 67 756 65 785.2 64.2C814.3 63.3 843.7 63.7 872.8 66.3C902 69 931 74 945.5 76.5L960 79L960 0L945.5 0C931 0 902 0 872.8 0C843.7 0 814.3 0 785.2 0C756 0 727 0 698 0C669 0 640 0 611 0C582 0 553 0 523.8 0C494.7 0 465.3 0 436.2 0C407 0 378 0 349 0C320 0 291 0 262 0C233 0 204 0 174.8 0C145.7 0 116.3 0 87.2 0C58 0 29 0 14.5 0L0 0Z" fill="#f68073"></path><path d="M0 32L14.5 31.5C29 31 58 30 87.2 34.2C116.3 38.3 145.7 47.7 174.8 51.2C204 54.7 233 52.3 262 53C291 53.7 320 57.3 349 55.3C378 53.3 407 45.7 436.2 44.2C465.3 42.7 494.7 47.3 523.8 45.5C553 43.7 582 35.3 611 34.5C640 33.7 669 40.3 698 40.2C727 40 756 33 785.2 32.3C814.3 31.7 843.7 37.3 872.8 40.2C902 43 931 43 945.5 43L960 43L960 0L945.5 0C931 0 902 0 872.8 0C843.7 0 814.3 0 785.2 0C756 0 727 0 698 0C669 0 640 0 611 0C582 0 553 0 523.8 0C494.7 0 465.3 0 436.2 0C407 0 378 0 349 0C320 0 291 0 262 0C233 0 204 0 174.8 0C145.7 0 116.3 0 87.2 0C58 0 29 0 14.5 0L0 0Z" fill="#e34234"></path><path d="M0 16L14.5 15.2C29 14.3 58 12.7 87.2 14C116.3 15.3 145.7 19.7 174.8 22.7C204 25.7 233 27.3 262 26.8C291 26.3 320 23.7 349 23.7C378 23.7 407 26.3 436.2 27.3C465.3 28.3 494.7 27.7 523.8 28.7C553 29.7 582 32.3 611 34.3C640 36.3 669 37.7 698 33.8C727 30 756 21 785.2 19C814.3 17 843.7 22 872.8 23.8C902 25.7 931 24.3 945.5 23.7L960 23L960 0L945.5 0C931 0 902 0 872.8 0C843.7 0 814.3 0 785.2 0C756 0 727 0 698 0C669 0 640 0 611 0C582 0 553 0 523.8 0C494.7 0 465.3 0 436.2 0C407 0 378 0 349 0C320 0 291 0 262 0C233 0 204 0 174.8 0C145.7 0 116.3 0 87.2 0C58 0 29 0 14.5 0L0 0Z" fill="#a82e27"></path></svg>