<svg id="visual" viewBox="0 0 960 300" width="960" height="300" xmlns="http://www.w3.org/2000/svg" xmlns:xlink="http://www.w3.org/1999/xlink" version="1.1"><rect x="0" y="0" width="960" height="300" fill="#F2F1E8"></rect><path d="M0 201L22.8 198.2C45.7 195.3 91.3 189.7 137 187C182.7 184.3 228.3 184.7 274 193.5C319.7 202.3 365.3 219.7 411.2 226.3C457 233 503 229 548.8 221.8C594.7 214.7 640.3 204.3 686 200.7C731.7 197 777.3 200 823 195.5C868.7 191 914.3 179 937.2 173L960 167L960 0L937.2 0C914.3 0 868.7 0 823 0C777.3 0 731.7 0 686 0C640.3 0 594.7 0 548.8 0C503 0 457 0 411.2 0C365.3 0 319.7 0 274 0C228.3 0 182.7 0 137 0C91.3 0 45.7 0 22.8 0L0 0Z" fill="#e34234"></path><path d="M0 122L22.8 121C45.7 120 91.3 118 137 122.3C182.7 126.7 228.3 137.3 274 150.8C319.7 164.3 365.3 180.7 411.2 177C457 173.3 503 149.7 548.8 144.8C594.7 140 640.3 154 686 160.5C731.7 167 777.3 166 823 166.8C868.7 167.7 914.3 170.3 937.2 171.7L960 173L960 0L937.2 0C914.3 0 868.7 0 823 0C777.3 0 731.7 0 686 0C640.3 0 594.7 0 548.8 0C503 0 457 0 411.2 0C365.3 0 319.7 0 274 0C228.3 0 182.7 0 137 0C91.3 0 45.7 0 22.8 0L0 0Z" fill="#a70852"></path><path d="M0 124L22.8 121.7C45.7 119.3 91.3 114.7 137 106.2C182.7 97.7 228.3 85.3 274 80.7C319.7 76 365.3 79 411.2 87.5C457 96 503 110 548.8 113.7C594.7 117.3 640.3 110.7 686 109.2C731.7 107.7 777.3 111.3 823 112.2C868.7 113 914.3 111 937.2 110L960 109L960 0L937.2 0C914.3 0 868.7 0 823 0C777.3 0 731.7 0 686 0C640.3 0 594.7 0 548.8 0C503 0 457 0 411.2 0C365.3 0 319.7 0 274 0C228.3 0 182.7 0 137 0C91.3 0 45.7 0 22.8 0L0 0Z" fill="#560e52"></path><path d="M0 88L22.8 78.2C45.7 68.3 91.3 48.7 137 47C182.7 45.3 228.3 61.7 274 64.5C319.7 67.3 365.3 56.7 411.2 53C457 49.3 503 52.7 548.8 54.8C594.7 57 640.3 58 686 58.8C731.7 59.7 777.3 60.3 823 64.2C868.7 68 914.3 75 937.2 78.5L960 82L960 0L937.2 0C914.3 0 868.7 0 823 0C777.3 0 731.7 0 686 0C640.3 0 594.7 0 548.8 0C503 0 457 0 411.2 0C365.3 0 319.7 0 274 0C228.3 0 182.7 0 137 0C91.3 0 45.7 0 22.8 0L0 0Z" fill="#050533"></path></svg>